{
  "asset": {
    "generator": "glTF-Transform",
    "version": "2.0"
  },
  "accessors": [
    {
      "name": "indices",
      "type": "SCALAR",
      "componentType": 5123,
      "count": 1353,
      "bufferView": 0,
      "byteOffset": 0
    },
    {
      "name": "NORMAL",
      "type": "VEC3",
      "componentType": 5126,
      "count": 454,
      "bufferView": 1,
      "byteOffset": 0
    },
    {
      "name": "POSITION",
      "type": "VEC3",
      "componentType": 5126,
      "count": 454,
      "max": [
        27.78844451904297,
        9.845237731933594,
        126.72567749023438
      ],
      "min": [
        8.624144554138184,
        -3.3945119380950928,
        -117.11431884765625
      ],
      "bufferView": 1,
      "byteOffset": 12
    },
    {
      "type": "SCALAR",
      "componentType": 5126,
      "count": 454,
      "bufferView": 1,
      "byteOffset": 24
    }
  ],
  "bufferViews": [
    {
      "buffer": 0,
      "byteOffset": 0,
      "byteLength": 2708,
      "target": 34963
    },
    {
      "buffer": 0,
      "byteOffset": 2712,
      "byteLength": 12712,
      "byteStride": 28,
      "target": 34962
    },
    {
      "buffer": 0,
      "byteOffset": 15424,
      "byteLength": 2
    }
  ],
  "buffers": [
    {
      "name": "master",
      "byteLength": 15432,
      "uri": "data:application/octet-stream;base64,"
    }
  ],
  "materials": [
    {
      "name": "Material_0",
      "doubleSided": true,
      "pbrMetallicRoughness": {
        "baseColorFactor": [
          0.24228112246555486,
          0.24228112246555486,
          0.24228112246555486,
          1
        ],
        "roughnessFactor": 0.5,
        "metallicFactor": 0
      },
      "emissiveFactor": [
        0,
        0,
        0
      ],
      "alphaMode": "OPAQUE"
    }
  ],
  "meshes": [
    {
      "name": "Mesh_0",
      "primitives": [
        {
          "attributes": {
            "NORMAL": 1,
            "POSITION": 2,
            "_FEATURE_ID_0": 3
          },
          "mode": 4,
          "material": 0,
          "indices": 0,
          "extensions": {
            "EXT_mesh_features": {
              "featureIds": [
                {
                  "featureCount": 1,
                  "attribute": 0,
                  "propertyTable": 0
                }
              ]
            }
          }
        }
      ]
    }
  ],
  "nodes": [
    {
      "name": "rootNode",
      "mesh": 0
    },
    {
      "name": "Z_UP_TO_Y_UP",
      "rotation": [
        -0.7071067811865475,
        0,
        0,
        0.7071067811865476
      ],
      "children": [
        0
      ],
      "translation": [
        0,
        0,
        0
      ],
      "scale": [
        1,
        1,
        1
      ]
    },
    {
      "children": [
        1
      ]
    }
  ],
  "scenes": [
    {
      "name": "defaultScene",
      "nodes": [
        2
      ]
    }
  ],
  "scene": 0,
  "extensionsUsed": [
    "EXT_structural_metadata",
    "EXT_mesh_features"
  ],
  "extensions": {
    "EXT_structural_metadata": {
      "schema": {
        "id": "ID_batch_table",
        "name": "Generated from batch_table",
        "classes": {
          "class_batch_table": {
            "name": "Generated from batch_table",
            "properties": {
              "Type": {
                "name": "Type",
                "description": "Generated from Type",
                "type": "SCALAR",
                "componentType": "UINT8",
                "required": true
              }
            }
          }
        }
      },
      "propertyTables": [
        {
          "name": "Property Table",
          "class": "class_batch_table",
          "count": 2,
          "properties": {
            "Type": {
              "values": 2
            }
          }
        }
      ]
    }
  }
}
