{
  "asset": {
    "version": "2.0"
  },
  "scenes": [
    {
      "nodes": [
        0
      ]
    }
  ],
  "nodes": [
    {
      "mesh": 0,
      "translation": [
        1,
        2,
        3
      ]
    }
  ],
  "meshes": [
    {
      "primitives": [
        {
          "attributes": {
            "POSITION": 0
          },
          "indices": 1
        }
      ]
    }
  ],
  "buffers": [
    {
      "byteLength": 2328,
      "uri": "data:application/octet-stream;base64,"
    }
  ],
  "bufferViews": [
    {
      "buffer": 0,
      "byteOffset": 0,
      "byteLength": 792,
      "target": 34962
    },
    {
      "buffer": 0,
      "byteOffset": 792,
      "byteLength": 1536,
      "target": 34963
    }
  ],
  "accessors": [
    {
      "bufferView": 0,
      "componentType": 5126,
      "count": 66,
      "type": "VEC3",
      "max": [
        1,
        1,
        2
      ],
      "min": [
        -1,
        -1,
        0
      ]
    },
    {
      "bufferView": 1,
      "componentType": 5125,
      "count": 384,
      "type": "SCALAR"
    }
  ]
}