{
  "asset": {
    "version": "2.0"
  },
  "scenes": [
    {
      "nodes": [
        0,
        1
      ]
    }
  ],
  "nodes": [
    {
      "mesh": 0
    },
    {
      "mesh": 1
    }
  ],
  "meshes": [
    {
      "primitives": [
        {
          "attributes": {
            "POSITION": 0
          },
          "indices": 1
        }
      ]
    },
    {
      "primitives": [
        {
          "attributes": {
            "POSITION": 2
          },
          "indices": 3
        }
      ]
    }
  ],
  "buffers": [
    {
      "byteLength": 9984,
      "uri": "data:application/octet-stream;base64,"
    }
  ],
  "bufferViews": [
    {
      "buffer": 0,
      "byteOffset": 0,
      "byteLength": 1152,
      "target": 34962
    },
    {
      "buffer": 0,
      "byteOffset": 1152,
      "byteLength": 1152,
      "target": 34963
    },
    {
      "buffer": 0,
      "byteOffset": 2304,
      "byteLength": 3840,
      "target": 34962
    },
    {
      "buffer": 0,
      "byteOffset": 6144,
      "byteLength": 3840,
      "target": 34963
    }
  ],
  "accessors": [
    {
      "bufferView": 0,
      "componentType": 5126,
      "count": 32,
      "type": "VEC3",
      "max": [
        8.5,
        2.5,
        3
      ],
      "min": [
        -0.5,
        -0.5,
        0
      ]
    },
    {
      "bufferView": 1,
      "componentType": 5125,
      "count": 288,
      "type": "SCALAR"
    },
    {
      "bufferView": 2,
      "componentType": 5126,
      "count": 106.66666666666667,
      "type": "VEC3",
      "max": [
        10.5,
        8.5,
        2
      ],
      "min": [
        -0.5,
        -0.5,
        -1
      ]
    },
    {
      "bufferView": 3,
      "componentType": 5125,
      "count": 960,
      "type": "SCALAR"
    }
  ]
}