{
  "asset": {
    "version": "2.0"
  },
  "extensionsUsed": [
    "EXT_mesh_features",
    "EXT_structural_metadata"
  ],
  "scenes": [
    {
      "nodes": [
        0
      ]
    }
  ],
  "nodes": [
    {
      "matrix": [
        1,
        0,
        0,
        0,
        0,
        0,
        -1,
        0,
        0,
        1,
        0,
        0,
        0,
        0,
        0,
        1
      ],
      "mesh": 0
    }
  ],
  "meshes": [
    {
      "primitives": [
        {
          "mode": 3,
          "attributes": {
            "POSITION": 0,
            "_FEATURE_ID_0": 2
          },
          "extensions": {
            "EXT_mesh_features": {
              "featureIds": [
                {
                  "featureCount": 11,
                  "propertyTable": 0,
                  "attribute": 0
                }
              ]
            }
          }
        },
        {
          "mode": 3,
          "attributes": {
            "POSITION": 1,
            "_FEATURE_ID_0": 3
          },
          "extensions": {
            "EXT_mesh_features": {
              "featureIds": [
                {
                  "featureCount": 11,
                  "propertyTable": 0,
                  "attribute": 0
                }
              ]
            }
          }
        }
      ]
    }
  ],
  "buffers": [
    {
      "uri": "data:application/octet-stream;base64,",
      "byteLength": 748
    }
  ],
  "bufferViews": [
    {
      "buffer": 0,
      "byteOffset": 0,
      "byteLength": 132,
      "target": 34962
    },
    {
      "buffer": 0,
      "byteOffset": 132,
      "byteLength": 132,
      "target": 34962
    },
    {
      "buffer": 0,
      "byteOffset": 264,
      "byteLength": 44,
      "byteStride": 4,
      "target": 34962
    },
    {
      "buffer": 0,
      "byteOffset": 308,
      "byteLength": 44,
      "byteStride": 4,
      "target": 34962
    },
    {
      "buffer": 0,
      "byteOffset": 352,
      "byteLength": 9
    },
    {
      "buffer": 0,
      "byteOffset": 361,
      "byteLength": 12
    },
    {
      "buffer": 0,
      "byteOffset": 373,
      "byteLength": 10
    },
    {
      "buffer": 0,
      "byteOffset": 383,
      "byteLength": 12
    },
    {
      "buffer": 0,
      "byteOffset": 395,
      "byteLength": 12
    },
    {
      "buffer": 0,
      "byteOffset": 407,
      "byteLength": 12
    },
    {
      "buffer": 0,
      "byteOffset": 419,
      "byteLength": 20
    },
    {
      "buffer": 0,
      "byteOffset": 439,
      "byteLength": 12
    },
    {
      "buffer": 0,
      "byteOffset": 451,
      "byteLength": 16
    },
    {
      "buffer": 0,
      "byteOffset": 467,
      "byteLength": 12
    },
    {
      "buffer": 0,
      "byteOffset": 479,
      "byteLength": 12
    },
    {
      "buffer": 0,
      "byteOffset": 491,
      "byteLength": 12
    },
    {
      "buffer": 0,
      "byteOffset": 503,
      "byteLength": 8
    },
    {
      "buffer": 0,
      "byteOffset": 511,
      "byteLength": 12
    },
    {
      "buffer": 0,
      "byteOffset": 523,
      "byteLength": 18
    },
    {
      "buffer": 0,
      "byteOffset": 541,
      "byteLength": 12
    },
    {
      "buffer": 0,
      "byteOffset": 553,
      "byteLength": 20
    },
    {
      "buffer": 0,
      "byteOffset": 573,
      "byteLength": 12
    },
    {
      "buffer": 0,
      "byteOffset": 585,
      "byteLength": 28
    },
    {
      "buffer": 0,
      "byteOffset": 613,
      "byteLength": 12
    },
    {
      "buffer": 0,
      "byteOffset": 625,
      "byteLength": 10
    },
    {
      "buffer": 0,
      "byteOffset": 635,
      "byteLength": 12
    },
    {
      "buffer": 0,
      "byteOffset": 647,
      "byteLength": 11
    },
    {
      "buffer": 0,
      "byteOffset": 658,
      "byteLength": 12
    },
    {
      "buffer": 0,
      "byteOffset": 670,
      "byteLength": 6
    },
    {
      "buffer": 0,
      "byteOffset": 676,
      "byteLength": 12
    },
    {
      "buffer": 0,
      "byteOffset": 688,
      "byteLength": 6
    },
    {
      "buffer": 0,
      "byteOffset": 694,
      "byteLength": 12
    },
    {
      "buffer": 0,
      "byteOffset": 706,
      "byteLength": 4
    },
    {
      "buffer": 0,
      "byteOffset": 710,
      "byteLength": 12
    },
    {
      "buffer": 0,
      "byteOffset": 722,
      "byteLength": 14
    },
    {
      "buffer": 0,
      "byteOffset": 736,
      "byteLength": 12
    }
  ],
  "accessors": [
    {
      "name": "POSITION",
      "bufferView": 0,
      "byteOffset": 0,
      "componentType": 5126,
      "count": 11,
      "type": "VEC3",
      "max": [
        17.16099897166714,
        11.869202013593167,
        -24.998508726246655
      ],
      "min": [
        10.7906734040007,
        -7.013212127611041,
        -34.0582475066185
      ]
    },
    {
      "name": "POSITION",
      "bufferView": 1,
      "byteOffset": 0,
      "componentType": 5126,
      "count": 11,
      "type": "VEC3",
      "max": [
        10.534685636870563,
        -6.76973578799516,
        1.8849423360079527
      ],
      "min": [
        -26.40117854066193,
        -9.397886037826538,
        -33.51976979523897
      ]
    },
    {
      "name": "FeatureId",
      "bufferView": 2,
      "byteOffset": 0,
      "componentType": 5121,
      "count": 11,
      "type": "SCALAR",
      "normalized": false
    },
    {
      "name": "FeatureId",
      "bufferView": 3,
      "byteOffset": 0,
      "componentType": 5121,
      "count": 11,
      "type": "SCALAR",
      "normalized": false
    }
  ],
  "materials": [
    {
      "pbrMetallicRoughness": {
        "baseColorFactor": [
          1,
          0,
          0,
          1
        ]
      }
    }
  ],
  "extensions": {
    "EXT_structural_metadata": {
      "schema": {
        "classes": {
          "conductorMetadata": {
            "properties": {
              "Ambient_Tension": {
                "name": "Ambient_Tension",
                "description": "Ambient Tension",
                "type": "STRING"
              },
              "Ambient_Tension_CBL": {
                "name": "Ambient_Tension_CBL",
                "description": "Ambient Tension CBL",
                "type": "STRING"
              },
              "Bay_Id": {
                "name": "Bay_Id",
                "description": "Bay Id",
                "type": "STRING"
              },
              "Captured_Date": {
                "name": "Captured_Date",
                "description": "Captured Date",
                "type": "STRING"
              },
              "Captured_Time": {
                "name": "Captured_Time",
                "description": "Captured Time",
                "type": "STRING"
              },
              "ConductorId": {
                "name": "ConductorId",
                "description": "ConductorId",
                "type": "STRING"
              },
              "Conductor_Length": {
                "name": "Conductor_Length",
                "description": "Conductor Length",
                "type": "STRING"
              },
              "Conductor_Type": {
                "name": "Conductor_Type",
                "description": "Conductor Type",
                "type": "STRING"
              },
              "Depot": {
                "name": "Depot",
                "description": "Depot",
                "type": "STRING"
              },
              "MaintenanceArea": {
                "name": "MaintenanceArea",
                "description": "MaintenanceArea",
                "type": "STRING"
              },
              "MaxWind_Tension": {
                "name": "MaxWind_Tension",
                "description": "MaxWind Tension",
                "type": "STRING"
              },
              "MaxWind_Tension_CBL": {
                "name": "MaxWind_Tension_CBL",
                "description": "MaxWind Tension CBL",
                "type": "STRING"
              },
              "Minimum_Ground_Clearance": {
                "name": "Minimum_Ground_Clearance",
                "description": "Minimum Ground Clearance",
                "type": "STRING"
              },
              "Minimum_Road_Clearance": {
                "name": "Minimum_Road_Clearance",
                "description": "Minimum Road Clearance",
                "type": "STRING"
              },
              "Nominal_Breaking_Load": {
                "name": "Nominal_Breaking_Load",
                "description": "Nominal Breaking Load",
                "type": "STRING"
              },
              "Voltage": {
                "name": "Voltage",
                "description": "Voltage",
                "type": "STRING"
              }
            }
          }
        }
      },
      "propertyTables": [
        {
          "name": "ConductorPropertyTable",
          "class": "conductorMetadata",
          "count": 2,
          "properties": {
            "Ambient_Tension": {
              "values": 4,
              "stringOffsets": 5
            },
            "Ambient_Tension_CBL": {
              "values": 6,
              "stringOffsets": 7
            },
            "Bay_Id": {
              "values": 8,
              "stringOffsets": 9
            },
            "Captured_Date": {
              "values": 10,
              "stringOffsets": 11
            },
            "Captured_Time": {
              "values": 12,
              "stringOffsets": 13
            },
            "ConductorId": {
              "values": 14,
              "stringOffsets": 15
            },
            "Conductor_Length": {
              "values": 16,
              "stringOffsets": 17
            },
            "Conductor_Type": {
              "values": 18,
              "stringOffsets": 19
            },
            "Depot": {
              "values": 20,
              "stringOffsets": 21
            },
            "MaintenanceArea": {
              "values": 22,
              "stringOffsets": 23
            },
            "MaxWind_Tension": {
              "values": 24,
              "stringOffsets": 25
            },
            "MaxWind_Tension_CBL": {
              "values": 26,
              "stringOffsets": 27
            },
            "Minimum_Ground_Clearance": {
              "values": 28,
              "stringOffsets": 29
            },
            "Minimum_Road_Clearance": {
              "values": 30,
              "stringOffsets": 31
            },
            "Nominal_Breaking_Load": {
              "values": 32,
              "stringOffsets": 33
            },
            "Voltage": {
              "values": 34,
              "stringOffsets": 35
            }
          }
        }
      ]
    }
  }
}