{
  "asset": {
    "version": "2.0"
  },
  "scenes": [
    {
      "nodes": [
        0
      ]
    }
  ],
  "nodes": [
    {
      "mesh": 0
    }
  ],
  "meshes": [
    {
      "primitives": [
        {
          "attributes": {
            "POSITION": 0
          },
          "indices": 1
        }
      ]
    }
  ],
  "buffers": [
    {
      "byteLength": 49920,
      "uri": "data:application/octet-stream;base64,"
    }
  ],
  "bufferViews": [
    {
      "buffer": 0,
      "byteOffset": 0,
      "byteLength": 25344,
      "target": 34962
    },
    {
      "buffer": 0,
      "byteOffset": 25344,
      "byteLength": 24576,
      "target": 34963
    }
  ],
  "accessors": [
    {
      "bufferView": 0,
      "componentType": 5126,
      "count": 2112,
      "type": "VEC3",
      "max": [
        18.599172859359534,
        12.192765041161328,
        -17.278452994301915
      ],
      "min": [
        -48.6991002721712,
        -62.9016084372066,
        -33.93282244261354
      ]
    },
    {
      "bufferView": 1,
      "componentType": 5125,
      "count": 6144,
      "type": "SCALAR"
    }
  ]
}