{
  "asset": {
    "version": "2.0"
  },
  "extensionsUsed": [
    "EXT_mesh_features",
    "EXT_structural_metadata"
  ],
  "scenes": [
    {
      "nodes": [
        0
      ]
    }
  ],
  "nodes": [
    {
      "matrix": [
        1,
        0,
        0,
        0,
        0,
        0,
        -1,
        0,
        0,
        1,
        0,
        0,
        0,
        0,
        0,
        1
      ],
      "mesh": 0
    }
  ],
  "meshes": [
    {
      "primitives": [
        {
          "mode": 3,
          "attributes": {
            "POSITION": 0,
            "_FEATURE_ID_0": 3
          },
          "extensions": {
            "EXT_mesh_features": {
              "featureIds": [
                {
                  "featureCount": 11,
                  "propertyTable": 0,
                  "attribute": 0
                }
              ]
            }
          }
        },
        {
          "mode": 3,
          "attributes": {
            "POSITION": 1,
            "_FEATURE_ID_0": 4
          },
          "extensions": {
            "EXT_mesh_features": {
              "featureIds": [
                {
                  "featureCount": 11,
                  "propertyTable": 0,
                  "attribute": 0
                }
              ]
            }
          }
        },
        {
          "mode": 3,
          "attributes": {
            "POSITION": 2,
            "_FEATURE_ID_0": 5
          },
          "extensions": {
            "EXT_mesh_features": {
              "featureIds": [
                {
                  "featureCount": 11,
                  "propertyTable": 0,
                  "attribute": 0
                }
              ]
            }
          }
        }
      ]
    }
  ],
  "buffers": [
    {
      "uri": "data:application/octet-stream;base64,",
      "byteLength": 1110
    }
  ],
  "bufferViews": [
    {
      "buffer": 0,
      "byteOffset": 0,
      "byteLength": 132,
      "target": 34962
    },
    {
      "buffer": 0,
      "byteOffset": 132,
      "byteLength": 132,
      "target": 34962
    },
    {
      "buffer": 0,
      "byteOffset": 264,
      "byteLength": 132,
      "target": 34962
    },
    {
      "buffer": 0,
      "byteOffset": 396,
      "byteLength": 44,
      "byteStride": 4,
      "target": 34962
    },
    {
      "buffer": 0,
      "byteOffset": 440,
      "byteLength": 44,
      "byteStride": 4,
      "target": 34962
    },
    {
      "buffer": 0,
      "byteOffset": 484,
      "byteLength": 44,
      "byteStride": 4,
      "target": 34962
    },
    {
      "buffer": 0,
      "byteOffset": 528,
      "byteLength": 15
    },
    {
      "buffer": 0,
      "byteOffset": 543,
      "byteLength": 16
    },
    {
      "buffer": 0,
      "byteOffset": 559,
      "byteLength": 24
    },
    {
      "buffer": 0,
      "byteOffset": 583,
      "byteLength": 16
    },
    {
      "buffer": 0,
      "byteOffset": 599,
      "byteLength": 18
    },
    {
      "buffer": 0,
      "byteOffset": 617,
      "byteLength": 16
    },
    {
      "buffer": 0,
      "byteOffset": 633,
      "byteLength": 30
    },
    {
      "buffer": 0,
      "byteOffset": 663,
      "byteLength": 16
    },
    {
      "buffer": 0,
      "byteOffset": 679,
      "byteLength": 24
    },
    {
      "buffer": 0,
      "byteOffset": 703,
      "byteLength": 16
    },
    {
      "buffer": 0,
      "byteOffset": 719,
      "byteLength": 18
    },
    {
      "buffer": 0,
      "byteOffset": 737,
      "byteLength": 16
    },
    {
      "buffer": 0,
      "byteOffset": 753,
      "byteLength": 14
    },
    {
      "buffer": 0,
      "byteOffset": 767,
      "byteLength": 16
    },
    {
      "buffer": 0,
      "byteOffset": 783,
      "byteLength": 36
    },
    {
      "buffer": 0,
      "byteOffset": 819,
      "byteLength": 16
    },
    {
      "buffer": 0,
      "byteOffset": 835,
      "byteLength": 30
    },
    {
      "buffer": 0,
      "byteOffset": 865,
      "byteLength": 16
    },
    {
      "buffer": 0,
      "byteOffset": 881,
      "byteLength": 12
    },
    {
      "buffer": 0,
      "byteOffset": 893,
      "byteLength": 16
    },
    {
      "buffer": 0,
      "byteOffset": 909,
      "byteLength": 42
    },
    {
      "buffer": 0,
      "byteOffset": 951,
      "byteLength": 16
    },
    {
      "buffer": 0,
      "byteOffset": 967,
      "byteLength": 15
    },
    {
      "buffer": 0,
      "byteOffset": 982,
      "byteLength": 16
    },
    {
      "buffer": 0,
      "byteOffset": 998,
      "byteLength": 24
    },
    {
      "buffer": 0,
      "byteOffset": 1022,
      "byteLength": 16
    },
    {
      "buffer": 0,
      "byteOffset": 1038,
      "byteLength": 7
    },
    {
      "buffer": 0,
      "byteOffset": 1045,
      "byteLength": 16
    },
    {
      "buffer": 0,
      "byteOffset": 1061,
      "byteLength": 3
    },
    {
      "buffer": 0,
      "byteOffset": 1064,
      "byteLength": 16
    },
    {
      "buffer": 0,
      "byteOffset": 1080,
      "byteLength": 14
    },
    {
      "buffer": 0,
      "byteOffset": 1094,
      "byteLength": 16
    }
  ],
  "accessors": [
    {
      "name": "POSITION",
      "bufferView": 0,
      "byteOffset": 0,
      "componentType": 5126,
      "count": 11,
      "type": "VEC3",
      "max": [
        -27.18807246722281,
        3.9764882209710777,
        47.63199722301215
      ],
      "min": [
        -146.47889323206618,
        -101.29748574923724,
        5.286919569130987
      ]
    },
    {
      "name": "POSITION",
      "bufferView": 1,
      "byteOffset": 0,
      "componentType": 5126,
      "count": 11,
      "type": "VEC3",
      "max": [
        -28.26058901892975,
        4.6630161250941455,
        48.84694563271478
      ],
      "min": [
        -147.61309513589367,
        -100.55248440429568,
        7.1565260454081
      ]
    },
    {
      "name": "POSITION",
      "bufferView": 2,
      "byteOffset": 0,
      "componentType": 5126,
      "count": 11,
      "type": "VEC3",
      "max": [
        -25.6342622381635,
        2.5497411261312664,
        42.92834918666631
      ],
      "min": [
        -76.8126109004952,
        -10.273613123223186,
        8.248131395317614
      ]
    },
    {
      "name": "FeatureId",
      "bufferView": 3,
      "byteOffset": 0,
      "componentType": 5121,
      "count": 11,
      "type": "SCALAR",
      "normalized": false
    },
    {
      "name": "FeatureId",
      "bufferView": 4,
      "byteOffset": 0,
      "componentType": 5121,
      "count": 11,
      "type": "SCALAR",
      "normalized": false
    },
    {
      "name": "FeatureId",
      "bufferView": 5,
      "byteOffset": 0,
      "componentType": 5121,
      "count": 11,
      "type": "SCALAR",
      "normalized": false
    }
  ],
  "materials": [
    {
      "pbrMetallicRoughness": {
        "baseColorFactor": [
          1,
          0,
          0,
          1
        ]
      }
    }
  ],
  "extensions": {
    "EXT_structural_metadata": {
      "schema": {
        "classes": {
          "conductorMetadata": {
            "properties": {
              "Ambient_Tension": {
                "name": "Ambient_Tension",
                "description": "Ambient Tension",
                "type": "STRING"
              },
              "Ambient_Tension_CBL": {
                "name": "Ambient_Tension_CBL",
                "description": "Ambient Tension CBL",
                "type": "STRING"
              },
              "Bay_Id": {
                "name": "Bay_Id",
                "description": "Bay Id",
                "type": "STRING"
              },
              "Captured_Date": {
                "name": "Captured_Date",
                "description": "Captured Date",
                "type": "STRING"
              },
              "Captured_Time": {
                "name": "Captured_Time",
                "description": "Captured Time",
                "type": "STRING"
              },
              "ConductorId": {
                "name": "ConductorId",
                "description": "ConductorId",
                "type": "STRING"
              },
              "Conductor_Length": {
                "name": "Conductor_Length",
                "description": "Conductor Length",
                "type": "STRING"
              },
              "Conductor_Type": {
                "name": "Conductor_Type",
                "description": "Conductor Type",
                "type": "STRING"
              },
              "Depot": {
                "name": "Depot",
                "description": "Depot",
                "type": "STRING"
              },
              "K_Factor": {
                "name": "K_Factor",
                "description": "K Factor",
                "type": "STRING"
              },
              "MaintenanceArea": {
                "name": "MaintenanceArea",
                "description": "MaintenanceArea",
                "type": "STRING"
              },
              "MaxWind_Tension": {
                "name": "MaxWind_Tension",
                "description": "MaxWind Tension",
                "type": "STRING"
              },
              "MaxWind_Tension_CBL": {
                "name": "MaxWind_Tension_CBL",
                "description": "MaxWind Tension CBL",
                "type": "STRING"
              },
              "Minimum_Ground_Clearance": {
                "name": "Minimum_Ground_Clearance",
                "description": "Minimum Ground Clearance",
                "type": "STRING"
              },
              "Nominal_Breaking_Load": {
                "name": "Nominal_Breaking_Load",
                "description": "Nominal Breaking Load",
                "type": "STRING"
              },
              "Voltage": {
                "name": "Voltage",
                "description": "Voltage",
                "type": "STRING"
              }
            }
          }
        }
      },
      "propertyTables": [
        {
          "name": "ConductorPropertyTable",
          "class": "conductorMetadata",
          "count": 3,
          "properties": {
            "Ambient_Tension": {
              "values": 6,
              "stringOffsets": 7
            },
            "Ambient_Tension_CBL": {
              "values": 8,
              "stringOffsets": 9
            },
            "Bay_Id": {
              "values": 10,
              "stringOffsets": 11
            },
            "Captured_Date": {
              "values": 12,
              "stringOffsets": 13
            },
            "Captured_Time": {
              "values": 14,
              "stringOffsets": 15
            },
            "ConductorId": {
              "values": 16,
              "stringOffsets": 17
            },
            "Conductor_Length": {
              "values": 18,
              "stringOffsets": 19
            },
            "Conductor_Type": {
              "values": 20,
              "stringOffsets": 21
            },
            "Depot": {
              "values": 22,
              "stringOffsets": 23
            },
            "K_Factor": {
              "values": 24,
              "stringOffsets": 25
            },
            "MaintenanceArea": {
              "values": 26,
              "stringOffsets": 27
            },
            "MaxWind_Tension": {
              "values": 28,
              "stringOffsets": 29
            },
            "MaxWind_Tension_CBL": {
              "values": 30,
              "stringOffsets": 31
            },
            "Minimum_Ground_Clearance": {
              "values": 32,
              "stringOffsets": 33
            },
            "Nominal_Breaking_Load": {
              "values": 34,
              "stringOffsets": 35
            },
            "Voltage": {
              "values": 36,
              "stringOffsets": 37
            }
          }
        }
      ]
    }
  }
}