{
  "asset": {
    "version": "2.0"
  },
  "extensionsUsed": [
    "EXT_mesh_features",
    "EXT_structural_metadata"
  ],
  "scenes": [
    {
      "nodes": [
        0
      ]
    }
  ],
  "nodes": [
    {
      "matrix": [
        1,
        0,
        0,
        0,
        0,
        0,
        -1,
        0,
        0,
        1,
        0,
        0,
        0,
        0,
        0,
        1
      ],
      "mesh": 0
    }
  ],
  "meshes": [
    {
      "primitives": [
        {
          "mode": 3,
          "attributes": {
            "POSITION": 0,
            "_FEATURE_ID_0": 4
          },
          "extensions": {
            "EXT_mesh_features": {
              "featureIds": [
                {
                  "featureCount": 11,
                  "propertyTable": 0,
                  "attribute": 0
                }
              ]
            }
          }
        },
        {
          "mode": 3,
          "attributes": {
            "POSITION": 1,
            "_FEATURE_ID_0": 5
          },
          "extensions": {
            "EXT_mesh_features": {
              "featureIds": [
                {
                  "featureCount": 11,
                  "propertyTable": 0,
                  "attribute": 0
                }
              ]
            }
          }
        },
        {
          "mode": 3,
          "attributes": {
            "POSITION": 2,
            "_FEATURE_ID_0": 6
          },
          "extensions": {
            "EXT_mesh_features": {
              "featureIds": [
                {
                  "featureCount": 11,
                  "propertyTable": 0,
                  "attribute": 0
                }
              ]
            }
          }
        },
        {
          "mode": 3,
          "attributes": {
            "POSITION": 3,
            "_FEATURE_ID_0": 7
          },
          "extensions": {
            "EXT_mesh_features": {
              "featureIds": [
                {
                  "featureCount": 11,
                  "propertyTable": 0,
                  "attribute": 0
                }
              ]
            }
          }
        }
      ]
    }
  ],
  "buffers": [
    {
      "uri": "data:application/octet-stream;base64,",
      "byteLength": 1481
    }
  ],
  "bufferViews": [
    {
      "buffer": 0,
      "byteOffset": 0,
      "byteLength": 132,
      "target": 34962
    },
    {
      "buffer": 0,
      "byteOffset": 132,
      "byteLength": 132,
      "target": 34962
    },
    {
      "buffer": 0,
      "byteOffset": 264,
      "byteLength": 132,
      "target": 34962
    },
    {
      "buffer": 0,
      "byteOffset": 396,
      "byteLength": 132,
      "target": 34962
    },
    {
      "buffer": 0,
      "byteOffset": 528,
      "byteLength": 44,
      "byteStride": 4,
      "target": 34962
    },
    {
      "buffer": 0,
      "byteOffset": 572,
      "byteLength": 44,
      "byteStride": 4,
      "target": 34962
    },
    {
      "buffer": 0,
      "byteOffset": 616,
      "byteLength": 44,
      "byteStride": 4,
      "target": 34962
    },
    {
      "buffer": 0,
      "byteOffset": 660,
      "byteLength": 44,
      "byteStride": 4,
      "target": 34962
    },
    {
      "buffer": 0,
      "byteOffset": 704,
      "byteLength": 20
    },
    {
      "buffer": 0,
      "byteOffset": 724,
      "byteLength": 20
    },
    {
      "buffer": 0,
      "byteOffset": 744,
      "byteLength": 24
    },
    {
      "buffer": 0,
      "byteOffset": 768,
      "byteLength": 20
    },
    {
      "buffer": 0,
      "byteOffset": 788,
      "byteLength": 24
    },
    {
      "buffer": 0,
      "byteOffset": 812,
      "byteLength": 20
    },
    {
      "buffer": 0,
      "byteOffset": 832,
      "byteLength": 40
    },
    {
      "buffer": 0,
      "byteOffset": 872,
      "byteLength": 20
    },
    {
      "buffer": 0,
      "byteOffset": 892,
      "byteLength": 32
    },
    {
      "buffer": 0,
      "byteOffset": 924,
      "byteLength": 20
    },
    {
      "buffer": 0,
      "byteOffset": 944,
      "byteLength": 24
    },
    {
      "buffer": 0,
      "byteOffset": 968,
      "byteLength": 20
    },
    {
      "buffer": 0,
      "byteOffset": 988,
      "byteLength": 20
    },
    {
      "buffer": 0,
      "byteOffset": 1008,
      "byteLength": 20
    },
    {
      "buffer": 0,
      "byteOffset": 1028,
      "byteLength": 38
    },
    {
      "buffer": 0,
      "byteOffset": 1066,
      "byteLength": 20
    },
    {
      "buffer": 0,
      "byteOffset": 1086,
      "byteLength": 40
    },
    {
      "buffer": 0,
      "byteOffset": 1126,
      "byteLength": 20
    },
    {
      "buffer": 0,
      "byteOffset": 1146,
      "byteLength": 20
    },
    {
      "buffer": 0,
      "byteOffset": 1166,
      "byteLength": 20
    },
    {
      "buffer": 0,
      "byteOffset": 1186,
      "byteLength": 56
    },
    {
      "buffer": 0,
      "byteOffset": 1242,
      "byteLength": 20
    },
    {
      "buffer": 0,
      "byteOffset": 1262,
      "byteLength": 20
    },
    {
      "buffer": 0,
      "byteOffset": 1282,
      "byteLength": 20
    },
    {
      "buffer": 0,
      "byteOffset": 1302,
      "byteLength": 23
    },
    {
      "buffer": 0,
      "byteOffset": 1325,
      "byteLength": 20
    },
    {
      "buffer": 0,
      "byteOffset": 1345,
      "byteLength": 12
    },
    {
      "buffer": 0,
      "byteOffset": 1357,
      "byteLength": 20
    },
    {
      "buffer": 0,
      "byteOffset": 1377,
      "byteLength": 12
    },
    {
      "buffer": 0,
      "byteOffset": 1389,
      "byteLength": 20
    },
    {
      "buffer": 0,
      "byteOffset": 1409,
      "byteLength": 16
    },
    {
      "buffer": 0,
      "byteOffset": 1425,
      "byteLength": 20
    },
    {
      "buffer": 0,
      "byteOffset": 1445,
      "byteLength": 16
    },
    {
      "buffer": 0,
      "byteOffset": 1461,
      "byteLength": 20
    }
  ],
  "accessors": [
    {
      "name": "POSITION",
      "bufferView": 0,
      "byteOffset": 0,
      "componentType": 5126,
      "count": 11,
      "type": "VEC3",
      "max": [
        -20.16419521672651,
        29.83882192336023,
        79.50511880684644
      ],
      "min": [
        -107.14112962502986,
        4.350493643898517,
        14.299380250275135
      ]
    },
    {
      "name": "POSITION",
      "bufferView": 1,
      "byteOffset": 0,
      "componentType": 5126,
      "count": 11,
      "type": "VEC3",
      "max": [
        -19.08060380583629,
        31.57229952327907,
        79.67084011621773
      ],
      "min": [
        -105.51590188825503,
        6.503465912304819,
        14.268623551819474
      ]
    },
    {
      "name": "POSITION",
      "bufferView": 2,
      "byteOffset": 0,
      "componentType": 5126,
      "count": 11,
      "type": "VEC3",
      "max": [
        -18.007180276792496,
        30.93546943832189,
        81.45526815811172
      ],
      "min": [
        -104.03757246164605,
        5.014881684910506,
        15.353884797543287
      ]
    },
    {
      "name": "POSITION",
      "bufferView": 3,
      "byteOffset": 0,
      "componentType": 5126,
      "count": 11,
      "type": "VEC3",
      "max": [
        -19.062172651756555,
        29.136682990007102,
        81.37052033748478
      ],
      "min": [
        -105.27840076945722,
        3.2829847098328173,
        15.436468213796616
      ]
    },
    {
      "name": "FeatureId",
      "bufferView": 4,
      "byteOffset": 0,
      "componentType": 5121,
      "count": 11,
      "type": "SCALAR",
      "normalized": false
    },
    {
      "name": "FeatureId",
      "bufferView": 5,
      "byteOffset": 0,
      "componentType": 5121,
      "count": 11,
      "type": "SCALAR",
      "normalized": false
    },
    {
      "name": "FeatureId",
      "bufferView": 6,
      "byteOffset": 0,
      "componentType": 5121,
      "count": 11,
      "type": "SCALAR",
      "normalized": false
    },
    {
      "name": "FeatureId",
      "bufferView": 7,
      "byteOffset": 0,
      "componentType": 5121,
      "count": 11,
      "type": "SCALAR",
      "normalized": false
    }
  ],
  "materials": [
    {
      "pbrMetallicRoughness": {
        "baseColorFactor": [
          1,
          0,
          0,
          1
        ]
      }
    }
  ],
  "extensions": {
    "EXT_structural_metadata": {
      "schema": {
        "classes": {
          "conductorMetadata": {
            "properties": {
              "Ambient_Tension": {
                "name": "Ambient_Tension",
                "description": "Ambient Tension",
                "type": "STRING"
              },
              "Ambient_Tension_CBL": {
                "name": "Ambient_Tension_CBL",
                "description": "Ambient Tension CBL",
                "type": "STRING"
              },
              "Bay_Id": {
                "name": "Bay_Id",
                "description": "Bay Id",
                "type": "STRING"
              },
              "Captured_Date": {
                "name": "Captured_Date",
                "description": "Captured Date",
                "type": "STRING"
              },
              "Captured_Time": {
                "name": "Captured_Time",
                "description": "Captured Time",
                "type": "STRING"
              },
              "ConductorId": {
                "name": "ConductorId",
                "description": "ConductorId",
                "type": "STRING"
              },
              "Conductor_Length": {
                "name": "Conductor_Length",
                "description": "Conductor Length",
                "type": "STRING"
              },
              "Conductor_Type": {
                "name": "Conductor_Type",
                "description": "Conductor Type",
                "type": "STRING"
              },
              "Depot": {
                "name": "Depot",
                "description": "Depot",
                "type": "STRING"
              },
              "K_Factor": {
                "name": "K_Factor",
                "description": "K Factor",
                "type": "STRING"
              },
              "MaintenanceArea": {
                "name": "MaintenanceArea",
                "description": "MaintenanceArea",
                "type": "STRING"
              },
              "MaxWind_Tension": {
                "name": "MaxWind_Tension",
                "description": "MaxWind Tension",
                "type": "STRING"
              },
              "MaxWind_Tension_CBL": {
                "name": "MaxWind_Tension_CBL",
                "description": "MaxWind Tension CBL",
                "type": "STRING"
              },
              "Minimum_Ground_Clearance": {
                "name": "Minimum_Ground_Clearance",
                "description": "Minimum Ground Clearance",
                "type": "STRING"
              },
              "Minimum_Road_Clearance": {
                "name": "Minimum_Road_Clearance",
                "description": "Minimum Road Clearance",
                "type": "STRING"
              },
              "Nominal_Breaking_Load": {
                "name": "Nominal_Breaking_Load",
                "description": "Nominal Breaking Load",
                "type": "STRING"
              },
              "Voltage": {
                "name": "Voltage",
                "description": "Voltage",
                "type": "STRING"
              }
            }
          }
        }
      },
      "propertyTables": [
        {
          "name": "ConductorPropertyTable",
          "class": "conductorMetadata",
          "count": 4,
          "properties": {
            "Ambient_Tension": {
              "values": 8,
              "stringOffsets": 9
            },
            "Ambient_Tension_CBL": {
              "values": 10,
              "stringOffsets": 11
            },
            "Bay_Id": {
              "values": 12,
              "stringOffsets": 13
            },
            "Captured_Date": {
              "values": 14,
              "stringOffsets": 15
            },
            "Captured_Time": {
              "values": 16,
              "stringOffsets": 17
            },
            "ConductorId": {
              "values": 18,
              "stringOffsets": 19
            },
            "Conductor_Length": {
              "values": 20,
              "stringOffsets": 21
            },
            "Conductor_Type": {
              "values": 22,
              "stringOffsets": 23
            },
            "Depot": {
              "values": 24,
              "stringOffsets": 25
            },
            "K_Factor": {
              "values": 26,
              "stringOffsets": 27
            },
            "MaintenanceArea": {
              "values": 28,
              "stringOffsets": 29
            },
            "MaxWind_Tension": {
              "values": 30,
              "stringOffsets": 31
            },
            "MaxWind_Tension_CBL": {
              "values": 32,
              "stringOffsets": 33
            },
            "Minimum_Ground_Clearance": {
              "values": 34,
              "stringOffsets": 35
            },
            "Minimum_Road_Clearance": {
              "values": 36,
              "stringOffsets": 37
            },
            "Nominal_Breaking_Load": {
              "values": 38,
              "stringOffsets": 39
            },
            "Voltage": {
              "values": 40,
              "stringOffsets": 41
            }
          }
        }
      ]
    }
  }
}